# xmcd
#
# Track frame offsets: 
#        300
#        14225
#        26726
#        38135
#        48794
#        62065
#        72796
#        84480
#        96918
#        108834
#        119309
#        130795
#        141983
#        157696
#        169902
#        182418
#        194504
#        205585
#        217951
#        228937
#        241043
#        251919
#        266404
#        277120
#        291085
#        305935
#
# Disc length: 4268 seconds
#
# Revision: 0
# Processed by: cddbd v1.5.2PL0 Copyright (c) Steve Scherf et al.
# Submitted via: ExactAudioCopy v1.0b1
#
DISCID=7810a81a
DTITLE=T-Bone Walker - The Complete Imperial Recordin [CD1)
DYEAR=1991
DGENRE=Texas Blues
TTITLE0=Glamour Girl
TTITLE1=Strollin' With Bone
TTITLE2=The Sun Went Down
TTITLE3=You Don't Love Me
TTITLE4=Travelin' Blues
TTITLE5=The Hustle Is On (78 Rpm Version)
TTITLE6=Baby Broke My Heart (78 Rpm Version)
TTITLE7=Evil Hearted Woman (Alt. Take)
TTITLE8=I Walked Away
TTITLE9=No Reason
TTITLE10=Look Me In The Eye
TTITLE11=Too Lazy (Alt. Take)
TTITLE12=Alimony Blues
TTITLE13=Life Is Too Short
TTITLE14=You Don't Understand
TTITLE15=Welcome Blues (Say Pretty Baby)
TTITLE16=I Get So Weary
TTITLE17=You Just Wanted To Use Me
TTITLE18=Tell Me What's The Reason
TTITLE19=I'm About To Lose My Mind
TTITLE20=I'm About To Lose My Mind
TTITLE21=News For My Baby
TTITLE22=Get These Blues Off Me
TTITLE23=I Got The Blues Again
TTITLE24=Through With Women
TTITLE25=Street Walking Woman
EXTD=
EXTT0=
EXTT1=
EXTT2=
EXTT3=
EXTT4=
EXTT5=
EXTT6=
EXTT7=
EXTT8=
EXTT9=
EXTT10=
EXTT11=
EXTT12=
EXTT13=
EXTT14=
EXTT15=
EXTT16=
EXTT17=
EXTT18=
EXTT19=
EXTT20=
EXTT21=
EXTT22=
EXTT23=
EXTT24=
EXTT25=
PLAYORDER=
